<svg width="400" height="400" viewBox="0 0 400 400" fill="none" xmlns="http://www.w3.org/2000/svg">
  <circle cx="200" cy="200" r="180" fill="#f0f4ff"/>
  <!-- Body -->
  <ellipse cx="200" cy="220" rx="140" ry="160" fill="#1e3a8a"/>
  <ellipse cx="200" cy="230" rx="100" ry="140" fill="white"/>
  <!-- Eyes -->
  <circle cx="160" cy="180" r="30" fill="white"/>
  <circle cx="240" cy="180" r="30" fill="white"/>
  <circle cx="160" cy="180" r="10" fill="black"/>
  <circle cx="240" cy="180" r="10" fill="black"/>
  <!-- Glasses -->
  <circle cx="160" cy="180" r="35" stroke="black" stroke-width="6"/>
  <circle cx="240" cy="180" r="35" stroke="black" stroke-width="6"/>
  <line x1="195" y1="180" x2="205" y2="180" stroke="black" stroke-width="6"/>
  <!-- Beak -->
  <path d="M190 210 L210 210 L200 230 Z" fill="#f97807"/>
  <!-- Grad Cap -->
  <path d="M130 110 L200 80 L270 110 L200 140 Z" fill="#1e3a8a" stroke="#0f172a" stroke-width="4"/>
  <rect x="195" y="80" width="10" height="40" fill="#1e3a8a"/>
  <path d="M270 110 L270 160" stroke="#f97807" stroke-width="4"/>
  <circle cx="270" cy="160" r="5" fill="#f97807"/>
</svg>